<svg width="118" height="39" viewBox="0 0 118 39" fill="none" xmlns="http://www.w3.org/2000/svg">
<path d="M103.874 9.45054V2.2934H101.254V0.930206H108.187V2.2934H105.555V9.45054H103.874Z" fill="black"/>
<path d="M114.344 9.45054H112.675L110.572 3.04576V9.45054H109.009V0.930206H111.454L113.522 7.56967L115.532 0.930206H118V9.45054H116.437V3.04576L114.345 9.45054H114.344Z" fill="black"/>
<path d="M82.4539 0.343871C89.0583 0.343871 94.8558 3.31825 96.3177 10.3262H91.3266C90.1168 6.14202 85.8815 4.67934 82.2521 4.67934C79.4291 4.67934 74.4883 5.93957 74.4883 10.0236C74.4883 13.2501 77.0088 14.8634 80.4371 15.6193L84.6717 16.5769C90.2674 17.7866 96.9727 19.9043 96.9727 27.2646C96.9727 34.6249 90.3178 38.2045 83.0584 38.2045C74.4379 38.2045 68.9928 33.4655 68.0345 26.2061H73.0761C74.0337 31.2477 77.462 33.869 83.1593 33.869C88.8566 33.869 91.6796 31.3479 91.6796 27.7185C91.6796 23.8363 88.4026 22.3239 83.815 21.2654L79.2778 20.3078C74.2362 19.1982 69.245 16.3751 69.245 10.3255C69.245 3.31825 76.5549 0.34317 82.4539 0.34317V0.343871Z" fill="black"/>
<path d="M46.3586 37.6721L60.8375 0.839844H65.5113L50.9819 37.6721H46.3592H46.3586Z" fill="black"/>
<path d="M20.4746 2.03212V0.839844H34.9367V2.03142C29.9532 2.41109 29.6828 3.87306 30.6579 6.96022L38.3496 31.1174L46.5288 6.90558C47.6664 3.49339 47.1249 2.40969 41.9789 2.03072V0.839844H53.6789V2.03142C51.4583 2.35645 50.1042 2.79007 49.3455 4.95676L38.1331 37.6721H35.75L26.7589 11.3482L17.7132 37.6721H15.33L4.06226 4.79424C3.41218 2.89865 2.43707 2.30251 -1.52588e-05 2.03212V0.839844H14.516V2.03142C9.42469 2.41109 9.20823 3.87306 10.1826 6.96022L17.8743 31.1174L25.6738 8.20574L24.4822 4.79354C23.8861 2.89795 22.857 2.30181 20.4739 2.03072L20.4746 2.03212Z" fill="black"/>
</svg>
