<svg width="104" height="10" viewBox="0 0 104 10" fill="none" xmlns="http://www.w3.org/2000/svg">
<path d="M62.5916 0.694473C64.1625 0.694473 65.5417 1.42495 65.8899 3.14483H64.7025C64.4149 2.11753 63.407 1.75896 62.544 1.75896C61.8721 1.75896 60.6969 2.06841 60.6969 3.07045C60.6969 3.86268 61.2967 4.25844 62.1121 4.44439L63.1193 4.67947C64.4509 4.97629 66.0457 5.49625 66.0457 7.30315C66.0457 9.11004 64.4625 9.98858 62.7358 9.98858C60.6847 9.98858 59.3898 8.82515 59.162 7.04351H60.3616C60.5895 8.28062 61.4049 8.92479 62.7602 8.92479C64.1156 8.92479 64.7869 8.30588 64.7869 7.41542C64.7869 6.4625 64.0075 6.0913 62.916 5.83167L61.8367 5.5966C60.6371 5.32433 59.4503 4.63105 59.4503 3.14624C59.4503 1.42635 61.1893 0.695877 62.5923 0.695877L62.5916 0.694473Z" fill="black"/>
<path d="M67.7608 1.6116H68.8523V3.28237H70.0757V4.18546H68.8523V8.01959C68.8523 8.71287 68.8999 8.88549 69.5242 8.88549H70.0757V9.82578H69.2841C68.0491 9.82578 67.7608 9.54089 67.7608 8.15502V4.18476H66.7413V3.28166H67.7608V1.6116Z" fill="black"/>
<path d="M75.3409 8.8737C74.9689 9.50453 74.3813 9.98731 73.3142 9.98731C71.8269 9.98731 71.2516 8.94808 71.2516 7.42538V3.2818H72.3431V7.09136C72.3431 8.11866 72.4988 9.00913 73.6985 9.00913C74.7417 9.00913 75.3415 8.27865 75.3415 6.83103V3.2811H76.433V9.82592H75.3415V8.873L75.3409 8.8737Z" fill="black"/>
<path d="M82.5841 0.855186H83.6757V9.82721H82.5841V8.82517C82.1883 9.53039 81.5164 9.9886 80.4732 9.9886C78.9859 9.9886 77.7148 8.73886 77.7148 6.52357C77.7148 4.30828 78.9859 3.05855 80.4732 3.05855C81.5164 3.05855 82.1883 3.51606 82.5841 4.22198V0.855186ZM80.7493 4.02269C79.634 4.02269 78.9022 4.90123 78.9022 6.52217C78.9022 8.14311 79.634 9.02165 80.7493 9.02165C81.7205 9.02165 82.6324 8.27924 82.6324 6.52217C82.6324 4.7651 81.7211 4.02269 80.7493 4.02269Z" fill="black"/>
<path d="M86.494 0.855186V2.2165H85.4025V0.855186H86.494ZM86.494 3.28239V9.82721H85.4025V3.28239H86.494Z" fill="black"/>
<path d="M93.9898 6.52305C93.9898 8.93622 92.395 9.98808 90.8955 9.98808C89.3959 9.98808 87.8011 8.93622 87.8011 6.52305C87.8011 4.10988 89.3966 3.05802 90.8955 3.05802C92.3943 3.05802 93.9898 4.10988 93.9898 6.52305ZM90.8955 8.99797C91.8911 8.99797 92.8262 8.231 92.8262 6.52305C92.8262 4.81509 91.8904 4.04813 90.8955 4.04813C89.9005 4.04813 88.9647 4.70423 88.9647 6.52305C88.9647 8.34187 89.9005 8.99797 90.8955 8.99797Z" fill="black"/>
<path d="M98.9909 5.11188C98.8107 4.31965 98.2354 4.0109 97.4676 4.0109C96.8317 4.0109 96.1122 4.2586 96.1122 4.85224C96.1122 5.38414 96.4719 5.61921 97.0956 5.75534L98.0069 5.94129C99.182 6.16373 100.214 6.64651 100.214 7.92151C100.214 9.19651 99.0623 9.98804 97.5873 9.98804C95.9082 9.98804 94.9486 8.83724 94.8167 7.67381H95.968C96.1482 8.52778 96.6515 9.03512 97.6111 9.03512C98.4387 9.03512 99.1099 8.67655 99.1099 8.04501C99.1099 7.35172 98.4986 7.10472 97.8028 6.94333L96.8433 6.74545C95.968 6.54757 95.0084 6.1518 95.0084 4.90136C95.0084 3.726 96.1598 3.04535 97.5873 3.04535C99.0147 3.04535 99.926 3.83758 100.13 5.11188H98.9909Z" fill="black"/>
<path d="M54.562 9.88555L57.9603 0.965454H59.0572L55.6467 9.88555H54.5613H54.562Z" fill="black"/>
<path d="M5.6411 1.55401V1.27262H8.95236V1.55401C7.8112 1.64382 7.74931 1.98906 7.97238 2.71814L9.73376 8.42512L11.6067 2.7048C11.8671 1.89854 11.7434 1.64242 10.5648 1.5533V1.27192H13.2436V1.5533C12.7349 1.62979 12.4248 1.73224 12.2514 2.24448L9.68411 9.97378H9.1387L7.08012 3.75456L5.00931 9.97378H4.46389L1.88371 2.20659C1.73477 1.7589 1.51171 1.61786 0.953369 1.55401V1.27262H4.27687V1.55401C3.11123 1.64382 3.06159 1.98906 3.28465 2.71814L5.04603 8.42512L6.8319 3.01215L6.55919 2.20589C6.4225 1.7582 6.18719 1.61716 5.64178 1.5533L5.6411 1.55401Z" fill="black"/>
<path d="M16.4182 9.53904V9.82042H13.6027V9.53904C14.1114 9.44922 14.4956 9.32151 14.4956 8.75874V2.27076C14.4956 1.80974 14.297 1.60554 13.8135 1.55432L13.6027 1.52906V1.27293L15.3144 0.761391H15.5375V4.66428C16.2196 3.65312 16.8772 3.21807 17.6334 3.21807C18.6379 3.21807 19.4812 3.92188 19.4812 5.35476V8.75874C19.4812 9.32151 19.8654 9.44992 20.3619 9.53904V9.82042H17.5716V9.53904C18.0551 9.44922 18.4271 9.32151 18.4271 8.75874V5.43195C18.4271 4.44675 17.9436 4.0117 17.2118 4.0117C16.6535 4.0117 16.108 4.30571 15.5375 5.06075V8.75874C15.5375 9.32151 15.9217 9.44992 16.4182 9.53904Z" fill="black"/>
<path d="M20.7339 6.74966C20.7339 4.6256 22.0736 3.21797 23.6732 3.21797C25.4216 3.21797 26.5628 4.60033 26.5628 6.49354C26.5628 8.60497 25.2108 9.99997 23.599 9.99997C21.875 9.99997 20.7339 8.63094 20.7339 6.74966ZM23.7847 9.48772C24.8014 9.48772 25.459 8.41271 25.459 6.91526C25.459 5.61009 24.9381 3.71618 23.5242 3.71618C22.5075 3.71618 21.8499 4.77857 21.8499 6.27531C21.8499 7.59311 22.3708 9.48702 23.7847 9.48702V9.48772Z" fill="black"/>
<path d="M27.3563 6.74966C27.3563 4.6256 28.6961 3.21797 30.2956 3.21797C32.044 3.21797 33.1852 4.60033 33.1852 6.49354C33.1852 8.60497 31.8332 9.99997 30.2215 9.99997C28.4975 9.99997 27.3563 8.63094 27.3563 6.74966ZM30.4071 9.48772C31.4238 9.48772 32.0815 8.41271 32.0815 6.91526C32.0815 5.61009 31.5605 3.71618 30.1467 3.71618C29.1299 3.71618 28.4723 4.77857 28.4723 6.27531C28.4723 7.59311 28.9933 9.48702 30.4071 9.48702V9.48772Z" fill="black"/>
<path d="M33.979 6.82618C33.979 4.54844 35.4174 3.2173 37.0421 3.2173C37.7119 3.2173 38.1336 3.44746 38.4559 3.76744V2.35982C38.4559 1.80968 38.2825 1.56619 37.7242 1.54093L37.5752 1.52829V1.27217L39.274 0.760628H39.5094V8.37485C39.5094 8.93761 39.6828 9.18111 40.2159 9.18111H40.4023V9.46249L38.6906 10H38.4552V8.74605C37.984 9.57757 37.2896 10 36.632 10C34.9454 10 33.9777 8.70746 33.9777 6.82618H33.979ZM36.9305 9.25759C37.5508 9.25759 38.1336 8.91235 38.4559 8.36151V5.50767C38.3818 4.68878 37.935 3.66499 36.8068 3.66499C35.8145 3.66499 35.095 4.75264 35.095 6.3392C35.095 8.0668 35.7771 9.25689 36.9305 9.25689V9.25759Z" fill="black"/>
<path d="M46.2691 6.27601H41.9908C42.0404 8.00361 42.8837 9.09126 44.1487 9.09126C45.0171 9.09126 45.6122 8.56638 46.0086 7.99098L46.2317 8.09343C45.9094 9.14248 44.9913 9.99997 43.7141 9.99997C42.0153 9.99997 40.9482 8.51586 40.9482 6.77562C40.9482 4.54911 42.1887 3.21797 43.8997 3.21797C45.487 3.21797 46.2684 4.63823 46.2684 6.27601H46.2691ZM45.1402 5.81499C45.0661 4.59963 44.6941 3.69092 43.6889 3.69092C42.6348 3.69092 42.1016 4.56104 42.0024 5.81499H45.1402Z" fill="black"/>
<path d="M49.7042 9.53895V9.82033H46.8887V9.53895C47.3974 9.44913 47.7816 9.32142 47.7816 8.75865V4.81716C47.7816 4.31825 47.6204 4.03686 47.0254 4.0109L46.8887 3.99827V3.72952L48.6004 3.21797H48.8235V4.66419C49.5056 3.65303 50.1632 3.21797 50.9194 3.21797C51.9239 3.21797 52.7672 3.92178 52.7672 5.35467V8.75865C52.7672 9.32142 53.1514 9.44983 53.6479 9.53895V9.82033H50.8698V9.53895C51.3411 9.44913 51.7131 9.32142 51.7131 8.75865V5.43186C51.7131 4.44666 51.2296 4.0116 50.4978 4.0116C49.9395 4.0116 49.3941 4.30562 48.8235 5.06065V8.75865C48.8235 9.32142 49.2077 9.44983 49.7042 9.53895Z" fill="black"/>
<path d="M100.829 2.14578C100.829 1.68757 100.974 1.31075 101.265 1.01603C101.556 0.721318 101.915 0.573959 102.344 0.573959C102.772 0.573959 103.127 0.721318 103.418 1.01603C103.709 1.31075 103.855 1.68687 103.855 2.14578C103.855 2.6047 103.709 2.9752 103.418 3.26711C103.127 3.55902 102.77 3.70497 102.344 3.70497C101.918 3.70497 101.556 3.55902 101.265 3.26711C100.974 2.9752 100.829 2.60189 100.829 2.14578ZM101.127 2.14578C101.127 2.524 101.243 2.83135 101.477 3.06923C101.709 3.30711 101.998 3.4257 102.343 3.4257C102.688 3.4257 102.983 3.30781 103.212 3.07133C103.441 2.83486 103.555 2.52681 103.555 2.14578C103.555 1.76476 103.441 1.45109 103.212 1.21181C102.982 0.972529 102.693 0.853239 102.343 0.853239C101.993 0.853239 101.709 0.97323 101.477 1.21392C101.243 1.4546 101.127 1.76476 101.127 2.14578ZM102.719 2.91626L102.392 2.28262H102.085V2.91626H101.754V1.25321H102.247C102.506 1.25321 102.697 1.2883 102.821 1.35917C102.944 1.43004 103.006 1.56687 103.006 1.76967C103.006 1.97246 102.909 2.12263 102.715 2.21174L103.087 2.91626H102.719ZM102.674 1.77458C102.674 1.67985 102.642 1.61459 102.579 1.5788C102.516 1.54302 102.422 1.52477 102.298 1.52477H102.084V2.02088H102.319C102.555 2.02088 102.674 1.93878 102.674 1.77528V1.77458Z" fill="black"/>
</svg>
